<?xml version="1.0" encoding="UTF-8"?>
<svg version="1.1" xmlns="http://www.w3.org/2000/svg" width="500" height="500">
<path d="M0 0 C165 0 330 0 500 0 C500 165 500 330 500 500 C335 500 170 500 0 500 C0 335 0 170 0 0 Z " fill="#5E17EB" transform="translate(0,0)"/>
<path d="M0 0 C1.86011719 0.00773437 1.86011719 0.00773437 3.7578125 0.015625 C4.99273437 0.01046875 6.22765625 0.0053125 7.5 0 C10.60469584 0.24378674 12.29320946 0.62597684 14.8828125 2.265625 C14.8828125 2.595625 14.8828125 2.925625 14.8828125 3.265625 C9.9328125 3.265625 4.9828125 3.265625 -0.1171875 3.265625 C5.4928125 3.595625 11.1028125 3.925625 16.8828125 4.265625 C20.12456928 11.14360012 22.48986864 18.03935673 24.6328125 25.328125 C24.94863281 26.38451172 25.26445312 27.44089844 25.58984375 28.52929688 C26.35951645 31.10653425 27.12371162 33.68525805 27.8828125 36.265625 C28.25043701 35.3370166 28.61806152 34.4084082 28.99682617 33.45166016 C30.36724305 30.00395212 31.76117009 26.56616546 33.16235352 23.13085938 C33.76515565 21.64354762 34.36157482 20.15363207 34.95141602 18.66113281 C35.80114892 16.5142887 36.67351048 14.37790137 37.55078125 12.2421875 C37.80933395 11.57442291 38.06788666 10.90665833 38.33427429 10.21865845 C39.67667104 7.0136872 40.47041196 5.48429804 43.59106445 3.82958984 C44.34734131 3.64348145 45.10361816 3.45737305 45.8828125 3.265625 C44.8928125 3.265625 43.9028125 3.265625 42.8828125 3.265625 C43.2128125 2.275625 43.5428125 1.285625 43.8828125 0.265625 C53.82381561 -0.36112826 53.82381561 -0.36112826 57.9453125 2.078125 C61.67214913 6.28584378 62.16986334 9.06467074 62.12573242 14.47509766 C62.12763077 15.20544724 62.12952911 15.93579681 62.13148499 16.6882782 C62.13518966 19.1021905 62.12449477 21.51580195 62.11328125 23.9296875 C62.11208937 25.60452234 62.1116363 27.27935787 62.1118927 28.95419312 C62.11032848 32.46299426 62.1020421 35.97169329 62.08862305 39.48046875 C62.07160708 43.98786471 62.06780948 48.49514869 62.06856823 53.00257301 C62.06829694 56.45969724 62.06282278 59.91679677 62.05556679 63.37391281 C62.05237552 65.03657214 62.05041165 66.69923428 62.04967308 68.36189651 C62.04751583 70.67962716 62.03878584 72.9972366 62.02807617 75.31494141 C62.02852936 76.00793839 62.02898254 76.70093536 62.02944946 77.41493225 C61.9972892 82.1511483 61.9972892 82.1511483 60.8828125 83.265625 C59.40628586 83.36443297 57.92514014 83.39641745 56.4453125 83.3984375 C55.10339844 83.40037109 55.10339844 83.40037109 53.734375 83.40234375 C52.32285156 83.39654297 52.32285156 83.39654297 50.8828125 83.390625 C49.47128906 83.39642578 49.47128906 83.39642578 48.03125 83.40234375 C47.13664062 83.40105469 46.24203125 83.39976562 45.3203125 83.3984375 C44.49402344 83.39730957 43.66773438 83.39618164 42.81640625 83.39501953 C40.8828125 83.265625 40.8828125 83.265625 39.8828125 82.265625 C39.79567419 80.55790142 39.77581243 78.84663851 39.78515625 77.13671875 C39.78837891 76.10224609 39.79160156 75.06777344 39.79492188 74.00195312 C39.80749023 72.3690332 39.80749023 72.3690332 39.8203125 70.703125 C39.82482422 69.61064453 39.82933594 68.51816406 39.83398438 67.39257812 C39.84581424 64.68354005 39.86229707 61.97460901 39.8828125 59.265625 C39.06876953 60.85503906 39.06876953 60.85503906 38.23828125 62.4765625 C37.51602655 63.86479232 36.79334815 65.25280176 36.0703125 66.640625 C35.71388672 67.33929688 35.35746094 68.03796875 34.99023438 68.7578125 C34.63896484 69.428125 34.28769531 70.0984375 33.92578125 70.7890625 C33.60633545 71.40700684 33.28688965 72.02495117 32.95776367 72.66162109 C31.8828125 74.265625 31.8828125 74.265625 28.8828125 76.265625 C25.9453125 76.640625 25.9453125 76.640625 22.8828125 76.265625 C19.00846001 73.2399402 17.9370095 70.17347142 16.6328125 65.515625 C16.29765625 64.34515625 15.9625 63.1746875 15.6171875 61.96875 C15.37484375 61.07671875 15.1325 60.1846875 14.8828125 59.265625 C14.85775635 59.9268335 14.8327002 60.58804199 14.80688477 61.26928711 C14.69128148 64.24744805 14.56839496 67.2252642 14.4453125 70.203125 C14.40599609 71.24404297 14.36667969 72.28496094 14.32617188 73.35742188 C14.28427734 74.34677734 14.24238281 75.33613281 14.19921875 76.35546875 C14.16256104 77.27191162 14.12590332 78.18835449 14.08813477 79.13256836 C13.8828125 81.265625 13.8828125 81.265625 12.8828125 82.265625 C5.95613411 83.7153949 -1.07437677 83.33802138 -8.1171875 83.265625 C-8.30438371 65.89080609 -7.94419592 48.61452939 -6.9453125 31.26733398 C-6.7373508 27.61825608 -6.54793708 23.96848613 -6.359375 20.31835938 C-6.2302558 17.98691859 -6.10009033 15.65553546 -5.96875 13.32421875 C-5.91345123 12.23805771 -5.85815247 11.15189667 -5.80117798 10.03282166 C-5.74126678 9.03899979 -5.68135559 8.04517792 -5.61962891 7.02124023 C-5.57077545 6.14781479 -5.521922 5.27438934 -5.47158813 4.37449646 C-4.85913184 0.73005716 -3.55350436 0.30280488 0 0 Z " fill="#FCFBFE" transform="translate(226.1171875,127.734375)"/>
<path d="M0 0 C1.18819336 -0.02054443 1.18819336 -0.02054443 2.40039062 -0.04150391 C10.50465496 0.02175723 16.17841913 2.62167648 22.0625 8.375 C29.41061131 18.98893855 29.26352296 32.22538875 27.6328125 44.6484375 C24.99961974 56.77412759 18.85875236 69.67478926 8.6796875 77.1171875 C-0.39674073 82.9183297 -8.38991059 83.67161284 -18.9375 83.5 C-20.52884766 83.48646484 -20.52884766 83.48646484 -22.15234375 83.47265625 C-24.74763638 83.44927524 -27.34244465 83.41650556 -29.9375 83.375 C-30.20763351 68.81064816 -29.75835473 54.39413299 -28.71704102 39.86425781 C-28.27614279 33.69553325 -27.87771904 27.54149392 -27.6875 21.359375 C-27.65390381 20.29017822 -27.62030762 19.22098145 -27.58569336 18.11938477 C-27.52994184 16.13059634 -27.48586067 14.14143494 -27.45532227 12.15209961 C-27.43010498 11.28077393 -27.4048877 10.40944824 -27.37890625 9.51171875 C-27.36545166 8.75592529 -27.35199707 8.00013184 -27.33813477 7.22143555 C-26.9375 5.375 -26.9375 5.375 -23.9375 3.375 C-16.04454081 0.87403328 -8.22881756 0.07215448 0 0 Z " fill="#FAF8FE" transform="translate(310.9375,295.625)"/>
<path d="M0 0 C7.81799079 4.52290813 11.52455159 10.04733481 13.93359375 18.74609375 C17.44367599 36.63720261 15.31512817 56.38769432 5.625 71.9375 C1.46154268 77.46880781 -3.62647146 81.21728684 -10.375 82.9375 C-18.03790549 83.84952679 -25.10205761 83.80110291 -31.375 78.9375 C-37.7274311 73.50002811 -40.9949422 67.14347244 -42.375 58.9375 C-43.72601454 40.3308164 -42.57606664 20.90715611 -29.81640625 6.1328125 C-21.7228443 -2.55559922 -11.00537525 -5.02960588 0 0 Z " fill="#F9F7FE" transform="translate(261.375,296.0625)"/>
<path d="M0 0 C7.81799079 4.52290813 11.52455159 10.04733481 13.93359375 18.74609375 C17.44367599 36.63720261 15.31512817 56.38769432 5.625 71.9375 C1.46154268 77.46880781 -3.62647146 81.21728684 -10.375 82.9375 C-18.03790549 83.84952679 -25.10205761 83.80110291 -31.375 78.9375 C-37.7274311 73.50002811 -40.9949422 67.14347244 -42.375 58.9375 C-43.72601454 40.3308164 -42.57606664 20.90715611 -29.81640625 6.1328125 C-21.7228443 -2.55559922 -11.00537525 -5.02960588 0 0 Z " fill="#F9F7FE" transform="translate(199.375,296.0625)"/>
<path d="M0 0 C1.66869141 -0.03867188 1.66869141 -0.03867188 3.37109375 -0.078125 C6.93482755 0.28828092 8.72648955 1.09802728 11.5625 3.25 C19.40652929 15.37259073 20.6820153 32.54865481 23.1875 46.5625 C23.48909801 48.22730154 23.79117981 49.8920155 24.09375 51.55664062 C24.66825754 54.72103938 25.23907036 57.88606399 25.80639648 61.05175781 C26.59027684 65.42094312 27.40171784 69.78486117 28.2253418 74.14672852 C28.66354357 76.88033337 28.78033401 79.49076925 28.5625 82.25 C26.94049485 83.87200515 25.14226969 83.3799075 22.90625 83.3828125 C21.49666016 83.38474609 21.49666016 83.38474609 20.05859375 83.38671875 C18.57552734 83.38091797 18.57552734 83.38091797 17.0625 83.375 C16.07378906 83.37886719 15.08507812 83.38273437 14.06640625 83.38671875 C13.12667969 83.38542969 12.18695313 83.38414062 11.21875 83.3828125 C10.35056641 83.38168457 9.48238281 83.38055664 8.58789062 83.37939453 C6.5625 83.25 6.5625 83.25 5.5625 82.25 C5.32596477 79.72403741 5.14076308 77.21892793 5 74.6875 C4.95681641 73.97658203 4.91363281 73.26566406 4.86914062 72.53320312 C4.76278223 70.77238088 4.66211154 69.0112168 4.5625 67.25 C3.44230469 67.4665625 2.32210937 67.683125 1.16796875 67.90625 C-0.30465999 68.18764403 -1.77731776 68.46888611 -3.25 68.75 C-3.98798828 68.89308594 -4.72597656 69.03617187 -5.48632812 69.18359375 C-8.51544391 69.75926281 -11.346696 70.25 -14.4375 70.25 C-14.56125 71.466875 -14.685 72.68375 -14.8125 73.9375 C-15.15811876 77.33608444 -16.08616302 80.11336011 -17.4375 83.25 C-20.74998187 83.27888146 -24.06243167 83.29675799 -27.375 83.3125 C-28.32052734 83.32087891 -29.26605469 83.32925781 -30.24023438 83.33789062 C-31.58891602 83.34272461 -31.58891602 83.34272461 -32.96484375 83.34765625 C-33.79749756 83.35289307 -34.63015137 83.35812988 -35.48803711 83.36352539 C-37.4375 83.25 -37.4375 83.25 -38.4375 82.25 C-38.68503536 77.45778927 -38.18292385 73.50355876 -36.8203125 68.91796875 C-36.46565918 67.71994629 -36.11100586 66.52192383 -35.74560547 65.28759766 C-35.35231735 64.00390028 -34.95792199 62.72054168 -34.5625 61.4375 C-34.36319885 60.78126648 -34.16389771 60.12503296 -33.95855713 59.44891357 C-28.79867847 42.50103196 -22.44838285 26.01600004 -15.4375 9.75 C-15.15890137 9.10305176 -14.88030273 8.45610352 -14.59326172 7.78955078 C-13.43018082 5.17025478 -12.48397861 3.29647861 -10.4375 1.25 C-7.01888731 0.04069483 -3.60014885 0.04994426 0 0 Z " fill="#FAF7FE" transform="translate(184.4375,127.75)"/>
<path d="M0 0 C4.52973989 3.55674522 7.35935268 8.2850893 9.1640625 13.69921875 C10.31003319 25.14296908 10.16185221 35.15472109 2.80078125 44.4140625 C-5.30601187 52.64654233 -17.81105028 55.05715152 -28.8359375 55.69921875 C-28.82808228 56.73647095 -28.82808228 56.73647095 -28.82006836 57.79467773 C-28.7993625 60.90868227 -28.78629787 64.02267236 -28.7734375 67.13671875 C-28.76505859 68.22533203 -28.75667969 69.31394531 -28.74804688 70.43554688 C-28.74321289 71.98725586 -28.74321289 71.98725586 -28.73828125 73.5703125 C-28.73042603 75.0078186 -28.73042603 75.0078186 -28.72241211 76.47436523 C-28.8359375 78.69921875 -28.8359375 78.69921875 -29.8359375 79.69921875 C-31.16637375 79.79759085 -32.50187094 79.83000467 -33.8359375 79.83203125 C-34.6403125 79.83332031 -35.4446875 79.83460938 -36.2734375 79.8359375 C-37.1190625 79.83207031 -37.9646875 79.82820313 -38.8359375 79.82421875 C-39.6815625 79.82808594 -40.5271875 79.83195312 -41.3984375 79.8359375 C-42.2028125 79.83464844 -43.0071875 79.83335937 -43.8359375 79.83203125 C-44.5784375 79.83090332 -45.3209375 79.82977539 -46.0859375 79.82861328 C-47.8359375 79.69921875 -47.8359375 79.69921875 -48.8359375 78.69921875 C-49.08742842 75.43673878 -49.00118883 72.15366936 -48.9921875 68.8828125 C-48.99045532 67.86086288 -48.98872314 66.83891327 -48.98693848 65.78599548 C-48.90044085 53.08810776 -48.11312961 40.43238423 -47.3359375 27.76171875 C-47.19078884 25.31318756 -47.04625452 22.86461988 -46.90234375 20.41601562 C-46.55392278 14.5099791 -46.19804842 8.60443094 -45.8359375 2.69921875 C-32.46976342 -2.7479029 -13.16590536 -7.48355207 0 0 Z " fill="#FAF8FE" transform="translate(341.8359375,131.30078125)"/>
<path d="M0 0 C4.88278844 4.20146912 7.72893148 8.2193616 8.36328125 14.7265625 C8.34652344 16.01304687 8.32976562 17.29953125 8.3125 18.625 C8.30863281 19.91664063 8.30476563 21.20828125 8.30078125 22.5390625 C8 26 8 26 6 30 C-0.27 30 -6.54 30 -13 30 C-13.33 25.38 -13.66 20.76 -14 16 C-18.82671497 16.51944667 -18.82671497 16.51944667 -21.0625 18.875 C-26.66607474 27.91302378 -28.17090297 37.66441827 -28.25 48.125 C-28.270625 48.81464844 -28.29125 49.50429687 -28.3125 50.21484375 C-28.34640639 54.64810418 -27.8265422 57.53136274 -25 61 C-22.04340127 61.83349951 -22.04340127 61.83349951 -19 61 C-16.59593616 58.62157423 -16.59593616 58.62157423 -15 56 C-15.969375 56.020625 -16.93875 56.04125 -17.9375 56.0625 C-21 56 -21 56 -22 55 C-21.96159938 52.93522826 -21.84339697 50.87173604 -21.6875 48.8125 C-21.60886719 47.68457031 -21.53023438 46.55664062 -21.44921875 45.39453125 C-21.00565252 42.04271339 -20.17546123 39.16175083 -19 36 C-2.17202194 32.79467085 -2.17202194 32.79467085 3.98046875 36.046875 C7.12844983 39.18562446 8.17997693 42.06451264 8.3125 46.375 C8.18651594 56.07577288 4.4592827 65.73702774 -2 73 C-9.39598801 79.26050437 -17.75266897 80.43949031 -27.16796875 80.25 C-33.42543479 79.69761679 -38.88372334 76.81818511 -43 72 C-49.91568237 60.08476381 -49.89270938 43.03768849 -47.31640625 29.765625 C-43.86042702 16.85947848 -38.14784295 7.04716959 -26.9140625 -0.37890625 C-18.58262081 -4.82337421 -8.08638876 -4.76889594 0 0 Z " fill="#FBF9FE" transform="translate(405,131)"/>
<path d="M0 0 C3.63178593 2.11606513 6.15660326 4.17432935 8.375 7.8125 C8.9525 8.6375 9.53 9.4625 10.125 10.3125 C12.73963771 17.6334856 12.19654141 25.62655184 9.375 32.8125 C7.81893249 34.36856751 6.31542629 33.94220769 4.15625 33.9453125 C2.88201172 33.94724609 2.88201172 33.94724609 1.58203125 33.94921875 C0.24205078 33.94341797 0.24205078 33.94341797 -1.125 33.9375 C-2.01832031 33.94136719 -2.91164062 33.94523437 -3.83203125 33.94921875 C-4.68152344 33.94792969 -5.53101563 33.94664062 -6.40625 33.9453125 C-7.19064453 33.94418457 -7.97503906 33.94305664 -8.78320312 33.94189453 C-10.625 33.8125 -10.625 33.8125 -11.625 32.8125 C-11.53403444 29.94561752 -11.38732012 27.10949485 -11.1875 24.25 C-11.13529297 23.44369141 -11.08308594 22.63738281 -11.02929688 21.80664062 C-10.89922624 19.80828262 -10.76270944 17.81034614 -10.625 15.8125 C-14.54804562 16.40806854 -14.54804562 16.40806854 -17.6875 18.75 C-23.29102629 27.60718672 -24.80550308 35.98552555 -24.8125 46.25 C-24.83086914 47.66249023 -24.83086914 47.66249023 -24.84960938 49.10351562 C-24.87236626 55.68120896 -24.87236626 55.68120896 -22.625 61.8125 C-17.99614979 62.72011769 -14.77474809 63.30234886 -10.625 60.8125 C-9.92963618 59.49390553 -9.26784012 58.15748283 -8.625 56.8125 C-7.60440324 55.21550403 -6.56193244 53.63231317 -5.5 52.0625 C-4.96117187 51.26328125 -4.42234375 50.4640625 -3.8671875 49.640625 C-3.45726562 49.03734375 -3.04734375 48.4340625 -2.625 47.8125 C0.82757006 48.40196318 2.66449539 49.59385035 5.1875 52 C5.81269531 52.57105469 6.43789062 53.14210937 7.08203125 53.73046875 C8.375 55.8125 8.375 55.8125 8.32421875 58.67578125 C5.75064056 67.18023922 -1.02790519 74.16983095 -8.484375 78.7265625 C-15.88680755 82.48181113 -23.40259232 83.34640389 -31.484375 80.97265625 C-37.59864988 78.22123256 -41.38036788 74.64269834 -44.625 68.8125 C-45.0375 68.10222656 -45.45 67.39195312 -45.875 66.66015625 C-51.23431246 55.17857365 -50.52643092 38.37931776 -46.5625 26.5 C-44.11086237 20.23857322 -40.8146556 15.03940043 -36.625 9.8125 C-36.026875 8.905 -35.42875 7.9975 -34.8125 7.0625 C-25.78330572 -2.22467126 -11.93957401 -5.67619092 0 0 Z " fill="#FAF8FE" transform="translate(129.625,129.1875)"/>
<path d="M0 0 C2.96912847 2.27438166 4.92743251 4.89783377 6.5859375 8.21484375 C6.66902388 9.59032531 6.69329766 10.96970171 6.68359375 12.34765625 C6.68037109 13.15332031 6.67714844 13.95898438 6.67382812 14.7890625 C6.66125977 16.05169922 6.66125977 16.05169922 6.6484375 17.33984375 C6.64392578 18.18933594 6.63941406 19.03882813 6.63476562 19.9140625 C6.62296624 22.01435284 6.60503056 24.11460705 6.5859375 26.21484375 C3.60671157 26.24168362 0.62772455 26.26160412 -2.3515625 26.27734375 C-3.62676758 26.28991211 -3.62676758 26.28991211 -4.92773438 26.30273438 C-5.73662109 26.30595703 -6.54550781 26.30917969 -7.37890625 26.3125 C-8.127771 26.31773682 -8.87663574 26.32297363 -9.64819336 26.32836914 C-11.4140625 26.21484375 -11.4140625 26.21484375 -12.4140625 25.21484375 C-12.64770131 23.36592429 -12.82709885 21.50996344 -12.9765625 19.65234375 C-13.06035156 18.64042969 -13.14414062 17.62851562 -13.23046875 16.5859375 C-13.29105469 15.80347656 -13.35164063 15.02101563 -13.4140625 14.21484375 C-14.7340625 14.21484375 -16.0540625 14.21484375 -17.4140625 14.21484375 C-19.15467003 16.7745607 -19.42091607 18.39646328 -19.5390625 21.52734375 C-17.41010006 28.50560954 -11.15286719 31.73978137 -5.2890625 35.58984375 C0.34495298 39.41819633 3.57323076 44.18943027 6.5859375 50.21484375 C7.60281532 58.88331044 5.41149877 65.93092827 0.6484375 73.15234375 C-5.75702912 79.55781037 -13.33199344 80.63615816 -22.08129883 80.6574707 C-31.11462554 80.43769931 -38.83059962 76.94237728 -46.4140625 72.21484375 C-45.96385307 66.36212119 -43.37567023 62.13264256 -40.4140625 57.21484375 C-36.5212069 57.81914985 -33.53369115 59.04746974 -30.0390625 60.83984375 C-25.20526716 63.12265102 -22.52784992 63.69216012 -17.4140625 62.21484375 C-16.99106978 59.14814656 -16.73730922 57.17429658 -17.4140625 54.21484375 C-19.68839606 51.63602291 -22.50603106 50.01304677 -25.4140625 48.21484375 C-40.0681676 38.28286329 -40.0681676 38.28286329 -42.4140625 31.21484375 C-43.75479873 21.61053137 -41.82743036 14.2088637 -36.4140625 6.21484375 C-28.30657138 -3.76664167 -11.01404264 -6.5294219 0 0 Z " fill="#FAF9FE" transform="translate(389.4140625,298.78515625)"/>
<path d="M0 0 C0.05380578 2.79192205 0.09357669 5.5828141 0.125 8.375 C0.14175781 9.1690625 0.15851563 9.963125 0.17578125 10.78125 C0.19335473 12.85492015 0.10335168 14.92883241 0 17 C-2.43885802 19.43885802 -3.54262328 19.4184685 -6.91015625 19.8515625 C-7.90080078 19.98046875 -8.89144531 20.109375 -9.91210938 20.2421875 C-10.95173828 20.36851562 -11.99136719 20.49484375 -13.0625 20.625 C-14.07505859 20.7590625 -15.08761719 20.893125 -16.13085938 21.03125 C-22.13866561 21.79045698 -27.94586954 22.13859612 -34 22 C-34 26.62 -34 31.24 -34 36 C-33.04867187 35.83757812 -32.09734375 35.67515625 -31.1171875 35.5078125 C-26.45384711 34.84296347 -21.82755512 34.85342865 -17.125 34.875 C-15.825625 34.86919922 -15.825625 34.86919922 -14.5 34.86328125 C-13.67757812 34.86457031 -12.85515625 34.86585938 -12.0078125 34.8671875 C-11.26160645 34.86831543 -10.51540039 34.86944336 -9.74658203 34.87060547 C-8 35 -8 35 -7 36 C-6.87341778 38.65822657 -6.81479786 41.27887424 -6.8125 43.9375 C-6.80025391 44.67935547 -6.78800781 45.42121094 -6.77539062 46.18554688 C-6.77011522 48.12513629 -6.87811098 50.0642371 -7 52 C-9.99918549 54.99918549 -13.57906239 54.69027374 -17.625 55.0625 C-19.20057215 55.21953808 -20.77609349 55.37708681 -22.3515625 55.53515625 C-23.50640137 55.64754639 -23.50640137 55.64754639 -24.68457031 55.76220703 C-28.13110853 56.11616403 -31.56402132 56.55576019 -35 57 C-34.99214478 58.1281311 -34.99214478 58.1281311 -34.98413086 59.27905273 C-34.96342773 62.66519342 -34.95036123 66.05132084 -34.9375 69.4375 C-34.92912109 70.62150391 -34.92074219 71.80550781 -34.91210938 73.02539062 C-34.90727539 74.71245117 -34.90727539 74.71245117 -34.90234375 76.43359375 C-34.89448853 77.99678345 -34.89448853 77.99678345 -34.88647461 79.59155273 C-35 82 -35 82 -36 83 C-37.40348735 83.09860131 -38.81180477 83.13078937 -40.21875 83.1328125 C-41.49298828 83.13474609 -41.49298828 83.13474609 -42.79296875 83.13671875 C-43.68628906 83.13285156 -44.57960938 83.12898438 -45.5 83.125 C-46.39332031 83.12886719 -47.28664063 83.13273437 -48.20703125 83.13671875 C-49.05652344 83.13542969 -49.90601562 83.13414062 -50.78125 83.1328125 C-51.56564453 83.13168457 -52.35003906 83.13055664 -53.15820312 83.12939453 C-55 83 -55 83 -56 82 C-56.11872687 79.67299245 -56.16210156 77.38660773 -56.15234375 75.05859375 C-56.15040512 74.31330917 -56.14846649 73.5680246 -56.14646912 72.80015564 C-56.05483836 62.67766305 -55.39699251 52.57818273 -54.77319336 42.47729492 C-54.56138428 39.04441709 -54.35723917 35.61114675 -54.15429688 32.17773438 C-54.02127585 29.96351504 -53.88782748 27.74932132 -53.75390625 25.53515625 C-53.6934462 24.52453629 -53.63298615 23.51391632 -53.57069397 22.47267151 C-53.39513368 19.64718691 -53.20339919 16.82360956 -53 14 C-52.90137161 12.57963943 -52.90137161 12.57963943 -52.80075073 11.13058472 C-52.69043015 9.78095139 -52.69043015 9.78095139 -52.57788086 8.40405273 C-52.51507431 7.60321762 -52.45226776 6.80238251 -52.38755798 5.97727966 C-52 4 -52 4 -50 2 C-47.22875977 1.58935547 -47.22875977 1.58935547 -43.69140625 1.3671875 C-41.74633179 1.24126221 -41.74633179 1.24126221 -39.76196289 1.11279297 C-38.36217638 1.0329225 -36.96235454 0.95366911 -35.5625 0.875 C-34.15030194 0.78934559 -32.73811119 0.70357062 -31.32592773 0.61767578 C-20.87868555 0.00526914 -10.46324007 -0.23992143 0 0 Z " fill="#FBF9FE" transform="translate(153,296)"/>
<path d="M0 0 C1.2684375 0.12375 1.2684375 0.12375 2.5625 0.25 C8.31465254 8.87822882 6.49526962 24.47089254 5.06640625 34.375 C3.81320985 40.4922977 2.44198402 45.18376332 -2.4375 49.25 C-5.0625 49.9375 -5.0625 49.9375 -7.4375 49.25 C-11.18320204 44.76773305 -10.86470644 40.29639389 -10.75 34.75 C-10.73799561 33.85941895 -10.72599121 32.96883789 -10.71362305 32.05126953 C-10.05439791 1.0312203 -10.05439791 1.0312203 0 0 Z " fill="#611CEB" transform="translate(250.4375,310.75)"/>
<path d="M0 0 C1.2684375 0.12375 1.2684375 0.12375 2.5625 0.25 C8.31465254 8.87822882 6.49526962 24.47089254 5.06640625 34.375 C3.81320985 40.4922977 2.44198402 45.18376332 -2.4375 49.25 C-5.0625 49.9375 -5.0625 49.9375 -7.4375 49.25 C-11.18320204 44.76773305 -10.86470644 40.29639389 -10.75 34.75 C-10.73799561 33.85941895 -10.72599121 32.96883789 -10.71362305 32.05126953 C-10.05439791 1.0312203 -10.05439791 1.0312203 0 0 Z " fill="#611CEB" transform="translate(188.4375,310.75)"/>
<path d="M0 0 C3.25195722 4.87793583 3.11325659 9.22391379 3 15 C3.66 15.33 4.32 15.66 5 16 C4.34 16 3.68 16 3 16 C2.91363281 16.60585938 2.82726562 17.21171875 2.73828125 17.8359375 C1.4389886 25.58401294 -1.14098117 32.1879749 -5.875 38.5 C-8.73863666 40.52139058 -11.61035664 41.21777461 -15 42 C-15 40.35 -15 38.7 -15 37 C-15.66 37 -16.32 37 -17 37 C-16.86215088 36.42241943 -16.72430176 35.84483887 -16.58227539 35.24975586 C-15.05179227 28.3335566 -14.61582598 21.63029795 -14.4375 14.5625 C-14.37762047 12.43868786 -14.31399476 10.31497706 -14.24609375 8.19140625 C-14.22216553 7.26529541 -14.1982373 6.33918457 -14.17358398 5.38500977 C-14 3 -14 3 -13 0 C-8.38311132 -1.01346337 -4.62162537 -1.06652893 0 0 Z " fill="#611CEB" transform="translate(316,316)"/>
<path d="M0 0 C2.8778494 2.57491789 3.87914292 4.17126574 4.4375 8 C3.91726227 11.56734441 3.33179948 13.23098812 1 16 C-4.01353118 19.36493759 -7.85126372 20.1216091 -14 21 C-13.67 14.73 -13.34 8.46 -13 2 C-3.88489209 -0.60431655 -3.88489209 -0.60431655 0 0 Z " fill="#621DEB" transform="translate(328,147)"/>
<path d="M0 0 C2.43818936 3.65728405 2.6716692 6.93287895 3.125 11.1875 C3.21136719 11.93708984 3.29773438 12.68667969 3.38671875 13.45898438 C3.59838382 15.30517412 3.80015464 17.15249344 4 19 C1.03 19 -1.94 19 -5 19 C-4.67 15.7 -4.34 12.4 -4 9 C-4.639375 10.2375 -5.27875 11.475 -5.9375 12.75 C-6.29714844 13.44609375 -6.65679687 14.1421875 -7.02734375 14.859375 C-7.95558182 16.90224433 -8.53166578 18.81115376 -9 21 C-9.66 21 -10.32 21 -11 21 C-9.48255971 15.18314554 -7.65233456 9.40827594 -5 4 C-4.34 3.67 -3.68 3.34 -3 3 C-3 3.99 -3 4.98 -3 6 C-2.34 6 -1.68 6 -1 6 C-0.67 4.02 -0.34 2.04 0 0 Z " fill="#7132ED" transform="translate(182,158)"/>
<path d="M0 0 C1.65 0.33 3.3 0.66 5 1 C5 1.66 5 2.32 5 3 C5.66 3.33 6.32 3.66 7 4 C6.34 4 5.68 4 5 4 C5.33 5.65 5.66 7.3 6 9 C6.33 7.68 6.66 6.36 7 5 C10 6 10 6 11 7 C11.375 9.375 11.375 9.375 11 12 C7.87020891 14.50383287 4.93383553 15.4380235 1 16 C1.66 13.69 2.32 11.38 3 9 C2.34 9 1.68 9 1 9 C0.01 10.485 0.01 10.485 -1 12 C-1.33 11.01 -1.66 10.02 -2 9 C-4.01508358 8.26676204 -4.01508358 8.26676204 -6 8 C-4.80487805 4.41463415 -4.80487805 4.41463415 -1.9375 2.9375 C-1.298125 2.628125 -0.65875 2.31875 0 2 C0 1.34 0 0.68 0 0 Z " fill="#E4D8FB" transform="translate(260,340)"/>
<path d="M0 0 C1.65 0.33 3.3 0.66 5 1 C5 1.66 5 2.32 5 3 C5.66 3.33 6.32 3.66 7 4 C6.34 4 5.68 4 5 4 C5.33 5.65 5.66 7.3 6 9 C6.33 7.68 6.66 6.36 7 5 C10 6 10 6 11 7 C11.375 9.375 11.375 9.375 11 12 C7.87020891 14.50383287 4.93383553 15.4380235 1 16 C1.66 13.69 2.32 11.38 3 9 C2.34 9 1.68 9 1 9 C0.01 10.485 0.01 10.485 -1 12 C-1.33 11.01 -1.66 10.02 -2 9 C-4.01508358 8.26676204 -4.01508358 8.26676204 -6 8 C-4.80487805 4.41463415 -4.80487805 4.41463415 -1.9375 2.9375 C-1.298125 2.628125 -0.65875 2.31875 0 2 C0 1.34 0 0.68 0 0 Z " fill="#E4D8FB" transform="translate(198,340)"/>
<path d="M0 0 C0.33 0 0.66 0 1 0 C0.979375 0.7425 0.95875 1.485 0.9375 2.25 C0.8839892 4.87550695 0.8839892 4.87550695 1.51147461 6.83300781 C2.10275684 9.45580694 2.01313619 11.73727617 1.87890625 14.421875 C1.83056641 15.44667969 1.78222656 16.47148437 1.73242188 17.52734375 C1.67634766 18.59082031 1.62027344 19.65429688 1.5625 20.75 C1.51029297 21.82894531 1.45808594 22.90789062 1.40429688 24.01953125 C1.27480531 26.67999422 1.13984639 29.34006452 1 32 C0.67 32 0.34 32 0 32 C-0.66 27.71 -1.32 23.42 -2 19 C-2.33 19 -2.66 19 -3 19 C-3.37379162 6.16648765 -3.37379162 6.16648765 -1 1 C-0.67 0.67 -0.34 0.34 0 0 Z " fill="#C2A7F7" transform="translate(221,177)"/>
<path d="M0 0 C4 2 4 2 5.046875 4.42578125 C5.27890625 5.37839844 5.5109375 6.33101562 5.75 7.3125 C5.99234375 8.25738281 6.2346875 9.20226562 6.484375 10.17578125 C6.97436687 12.85960036 7.09908878 15.2800129 7 18 C6.34 17.67 5.68 17.34 5 17 C4.375 13.9375 4.375 13.9375 4 11 C2.68 10.67 1.36 10.34 0 10 C0 6.7 0 3.4 0 0 Z " fill="#7335ED" transform="translate(198,188)"/>
<path d="M0 0 C3 1 3 1 4 2 C4.375 4.375 4.375 4.375 4 7 C0.87020891 9.50383287 -2.06616447 10.4380235 -6 11 C-5.67 9.02 -5.34 7.04 -5 5 C-3.68 4.67 -2.36 4.34 -1 4 C-0.67 2.68 -0.34 1.36 0 0 Z " fill="#BB9DF6" transform="translate(267,345)"/>
<path d="M0 0 C3 1 3 1 4 2 C4.375 4.375 4.375 4.375 4 7 C0.87020891 9.50383287 -2.06616447 10.4380235 -6 11 C-5.67 9.02 -5.34 7.04 -5 5 C-3.68 4.67 -2.36 4.34 -1 4 C-0.67 2.68 -0.34 1.36 0 0 Z " fill="#BB9DF6" transform="translate(205,345)"/>
<path d="M0 0 C1.86011719 0.00773437 1.86011719 0.00773437 3.7578125 0.015625 C4.99273437 0.01046875 6.22765625 0.0053125 7.5 0 C10.60469584 0.24378674 12.29320946 0.62597684 14.8828125 2.265625 C14.8828125 2.595625 14.8828125 2.925625 14.8828125 3.265625 C8.6128125 3.265625 2.3428125 3.265625 -4.1171875 3.265625 C-4.1171875 4.915625 -4.1171875 6.565625 -4.1171875 8.265625 C-4.4471875 8.265625 -4.7771875 8.265625 -5.1171875 8.265625 C-5.2421875 5.390625 -5.2421875 5.390625 -5.1171875 2.265625 C-3.1171875 0.265625 -3.1171875 0.265625 0 0 Z " fill="#DAC9FA" transform="translate(226.1171875,127.734375)"/>
<path d="M0 0 C0.33 0 0.66 0 1 0 C1 5.94 1 11.88 1 18 C0.01 18 -0.98 18 -2 18 C-2.2361959 11.59646678 -1.823321 6.15370839 0 0 Z " fill="#6D2DEC" transform="translate(298,190)"/>
<path d="M0 0 C2.97 0.495 2.97 0.495 6 1 C6 2.65 6 4.3 6 6 C3 7 3 7 -1 7 C-1.33 5.35 -1.66 3.7 -2 2 C-1.34 2 -0.68 2 0 2 C0 1.34 0 0.68 0 0 Z " fill="#C5ABF7" transform="translate(270,337)"/>
<path d="M0 0 C2.97 0.495 2.97 0.495 6 1 C6 2.65 6 4.3 6 6 C3 7 3 7 -1 7 C-1.33 5.35 -1.66 3.7 -2 2 C-1.34 2 -0.68 2 0 2 C0 1.34 0 0.68 0 0 Z " fill="#C5ABF7" transform="translate(208,337)"/>
<path d="M0 0 C0.66 0.33 1.32 0.66 2 1 C1.67 4.3 1.34 7.6 1 11 C0.67 10.34 0.34 9.68 0 9 C-0.66 9 -1.32 9 -2 9 C-2 7.35 -2 5.7 -2 4 C-2.66 3.67 -3.32 3.34 -4 3 C-3 1 -3 1 0 0 Z " fill="#EBE2FC" transform="translate(273,343)"/>
<path d="M0 0 C0.66 0.33 1.32 0.66 2 1 C1.67 4.3 1.34 7.6 1 11 C0.67 10.34 0.34 9.68 0 9 C-0.66 9 -1.32 9 -2 9 C-2 7.35 -2 5.7 -2 4 C-2.66 3.67 -3.32 3.34 -4 3 C-3 1 -3 1 0 0 Z " fill="#EBE2FC" transform="translate(211,343)"/>
<path d="M0 0 C0.33 0.99 0.66 1.98 1 3 C1.66 3 2.32 3 3 3 C2.34 4.32 1.68 5.64 1 7 C0.34 7 -0.32 7 -1 7 C-2.32 10.63 -3.64 14.26 -5 18 C-5.66 18 -6.32 18 -7 18 C-3.11764706 3.11764706 -3.11764706 3.11764706 0 0 Z " fill="#A47CF3" transform="translate(178,161)"/>
<path d="M0 0 C3.63 0 7.26 0 11 0 C10.67 1.32 10.34 2.64 10 4 C6.37 3.67 2.74 3.34 -1 3 C-0.67 2.01 -0.34 1.02 0 0 Z " fill="#E9E0FC" transform="translate(270,128)"/>
<path d="M0 0 C1.98 0 3.96 0 6 0 C6.33 1.65 6.66 3.3 7 5 C2.38297872 6.19148936 2.38297872 6.19148936 0 5 C0 3.35 0 1.7 0 0 Z " fill="#CFBAF8" transform="translate(191,169)"/>
<path d="M0 0 C2.0625 0.4375 2.0625 0.4375 4 1 C3.01 3.31 2.02 5.62 1 8 C0.01 7.67 -0.98 7.34 -2 7 C-2 6.34 -2 5.68 -2 5 C-1.34 5 -0.68 5 0 5 C-0.2784375 4.0409375 -0.2784375 4.0409375 -0.5625 3.0625 C-0.7790625 2.0415625 -0.7790625 2.0415625 -1 1 C-0.67 0.67 -0.34 0.34 0 0 Z " fill="#E5DAFB" transform="translate(269,355)"/>
<path d="M0 0 C2.0625 0.4375 2.0625 0.4375 4 1 C3.01 3.31 2.02 5.62 1 8 C0.01 7.67 -0.98 7.34 -2 7 C-2 6.34 -2 5.68 -2 5 C-1.34 5 -0.68 5 0 5 C-0.2784375 4.0409375 -0.2784375 4.0409375 -0.5625 3.0625 C-0.7790625 2.0415625 -0.7790625 2.0415625 -1 1 C-0.67 0.67 -0.34 0.34 0 0 Z " fill="#E5DAFB" transform="translate(207,355)"/>
<path d="M0 0 C0.33 0.99 0.66 1.98 1 3 C0.01 3.33 -0.98 3.66 -2 4 C-2.73323796 6.01508358 -2.73323796 6.01508358 -3 8 C-3 7.34 -3 6.68 -3 6 C-3.66 6 -4.32 6 -5 6 C-4.625 3.5625 -4.625 3.5625 -4 1 C-2 0 -2 0 0 0 Z " fill="#D5C3F9" transform="translate(402,142)"/>
<path d="M0 0 C0.66 0.33 1.32 0.66 2 1 C2 1.99 2 2.98 2 4 C-0.31 4.66 -2.62 5.32 -5 6 C-5 5.01 -5 4.02 -5 3 C-4.360625 2.87625 -3.72125 2.7525 -3.0625 2.625 C-2.0415625 2.315625 -2.0415625 2.315625 -1 2 C-0.67 1.34 -0.34 0.68 0 0 Z " fill="#D8C7FA" transform="translate(267,350)"/>
<path d="M0 0 C0.66 0.33 1.32 0.66 2 1 C2 1.99 2 2.98 2 4 C-0.31 4.66 -2.62 5.32 -5 6 C-5 5.01 -5 4.02 -5 3 C-4.360625 2.87625 -3.72125 2.7525 -3.0625 2.625 C-2.0415625 2.315625 -2.0415625 2.315625 -1 2 C-0.67 1.34 -0.34 0.68 0 0 Z " fill="#D8C7FA" transform="translate(205,350)"/>
</svg>
